<?xml version="1.0" encoding="utf-8"?>
<!-- Generator: Adobe Illustrator 25.3.0, SVG Export Plug-In . SVG Version: 6.00 Build 0)  -->
<svg version="1.1" id="Слой_1" xmlns="http://www.w3.org/2000/svg" xmlns:xlink="http://www.w3.org/1999/xlink" x="0px" y="0px"
	 viewBox="0 0 3200 2000" style="enable-background:new 0 0 3200 2000;" xml:space="preserve">
<style type="text/css">
	.st0{fill:#FFFFFF;}
	.st1{fill:#DDE8FD;}
	.st2{fill:#93B3F4;}
	.st3{fill:#060632;}
	.st4{fill:#3662C1;}
	.st5{fill:#E75755;}
	.st6{fill:#FA7269;}
	.st7{fill:#6D89CF;}
	.st8{fill:#BED2FA;}
	.st9{fill:#0B0754;}
	.st10{fill:#FFBA8D;}
	.st11{fill:#E55756;}
	.st12{fill:#A83F3F;}
	.st13{fill:#FD817B;}
	.st14{fill:#E2A481;}
	.st15{fill:#3663BF;}
	.st16{fill:#FC9290;}
	.st17{fill:#E5AA89;}
	.st18{fill:#030231;}
	.st19{fill:#3A49CD;}
	.st20{fill:none;}
</style>
<rect x="0" class="st0" width="3200" height="2000"/>
<path class="st1" d="M2934.1,1793.5c112.6-267.4,160.9-661.8,0.3-917.3c-108.3-172.3-275.4-224.7-458.1-274.4
	c-155.2-42.3-238.9-171.5-362.6-262.6C1938.1,210,1707.4,189.7,1497,189.4c-255.1-0.4-549.7,24.2-761.5,183.7
	c-120.3,90.6-219.8,223.4-213.8,381.7c5.2,138.9,70.5,259.7-66.7,353.6c-114.1,78.1-217.1,142.1-262,283.6
	c-42.3,133.2-24.1,305,86.5,400.5L2934.1,1793.5z"/>
<g>
	<rect x="1376.2" y="352.1" class="st0" width="604.1" height="855.4"/>
	<rect x="1406.2" y="383.3" class="st0" width="545" height="793.8"/>
	<rect x="1777.5" y="425.4" class="st0" width="133.2" height="134.3"/>
	<rect x="1466.9" y="792.7" class="st0" width="121.4" height="357.2"/>
	<g>
		<path class="st2" d="M1552.4,887.3v58.5h-49.5v-58.5c0-5,4-9,9-9h31.6C1548.3,878.2,1552.4,882.3,1552.4,887.3z"/>
		<rect x="1490.3" y="1055" class="st3" width="74.7" height="15.1"/>
		<rect x="1507" y="1123.9" class="st3" width="41.3" height="8.3"/>
		<rect x="1517.6" y="1070.1" class="st3" width="20.1" height="58"/>
		<g>
			<path class="st3" d="M1543.4,878.2h-31.6c-4.9,0-9,4.1-9,9v170.6c0,5,4,9,9,9h31.6c4.9,0,9-4.1,9-9V887.3
				C1552.4,882.3,1548.3,878.2,1543.4,878.2z M1549.7,1057.9c0,3.5-2.8,6.4-6.3,6.4h-31.6c-3.5,0-6.3-2.9-6.3-6.4V887.3
				c0-3.5,2.8-6.4,6.3-6.4h31.6c3.5,0,6.3,2.9,6.3,6.4V1057.9z"/>
		</g>
		<rect x="1522.5" y="866.2" class="st3" width="10.2" height="13.4"/>
		<rect x="1526.8" y="804.3" class="st3" width="1.6" height="65.5"/>
		<g>
			<rect x="1517.1" y="894.2" class="st3" width="21.2" height="2"/>
			<rect x="1517.1" y="900.4" class="st3" width="21.2" height="2"/>
			<rect x="1517.1" y="907" class="st3" width="21.2" height="2"/>
			<rect x="1517.1" y="912.9" class="st3" width="21.2" height="2"/>
			<rect x="1512.4" y="918.6" class="st3" width="30.6" height="2"/>
		</g>
		<g>
			<rect x="1517.1" y="925" class="st3" width="21.2" height="2"/>
			<rect x="1517.1" y="931.2" class="st3" width="21.2" height="2"/>
			<rect x="1517.1" y="937.9" class="st3" width="21.2" height="2"/>
			<rect x="1517.1" y="943.8" class="st3" width="21.2" height="2"/>
			<rect x="1512.4" y="949.5" class="st3" width="30.6" height="2"/>
		</g>
		<g>
			<rect x="1517.1" y="955.9" class="st3" width="21.2" height="2"/>
			<rect x="1517.1" y="962.1" class="st3" width="21.2" height="2"/>
			<rect x="1517.1" y="968.7" class="st3" width="21.2" height="2"/>
			<rect x="1517.1" y="974.7" class="st3" width="21.2" height="2"/>
			<rect x="1512.4" y="980.3" class="st3" width="30.6" height="2"/>
		</g>
		<g>
			<rect x="1517.1" y="987.4" class="st3" width="21.2" height="2"/>
			<rect x="1517.1" y="993.6" class="st3" width="21.2" height="2"/>
			<rect x="1517.1" y="1000.2" class="st3" width="21.2" height="2"/>
			<rect x="1517.1" y="1006.1" class="st3" width="21.2" height="2"/>
			<rect x="1512.4" y="1011.8" class="st3" width="30.6" height="2"/>
		</g>
		<g>
			<rect x="1517.1" y="1017.2" class="st3" width="21.2" height="2"/>
			<rect x="1517.1" y="1023.4" class="st3" width="21.2" height="2"/>
			<rect x="1517.1" y="1030" class="st3" width="21.2" height="2"/>
			<rect x="1517.1" y="1036" class="st3" width="21.2" height="2"/>
			<rect x="1512.4" y="1041.7" class="st3" width="30.6" height="2"/>
		</g>
	</g>
	<path class="st4" d="M1827.2,454c24-16.1,22.1,21.8,40.4,26.8c33.4,9,9.5,25.6,12.3,41.2c5.8,32.8-30.5,5.1-49.1,1.5
		c-22.8-4.3-37.6-27.4-21.1-41.3C1817.7,475.5,1816.3,461.3,1827.2,454z"/>
	<path class="st4" d="M1872.7,447.5c7.7-2.1,3.9,7.7,8.3,10.7c8,5.4,0.3,7.6-0.4,12c-1.4,9.2-8.5-1.4-13.1-4
		c-5.6-3.2-7.5-10.6-1.9-12.8C1868.3,452.3,1869.2,448.5,1872.7,447.5z"/>
	<g>
		<rect x="1777.5" y="596.5" class="st0" width="133.2" height="134.3"/>
		<g>
			<path class="st5" d="M1912.4,732.6h-136.6V594.8h136.6V732.6z M1779.3,729.1H1909V598.3h-129.7V729.1z"/>
		</g>
		<g>
			<path class="st5" d="M1912.4,563.2h-136.6V425.4h136.6V563.2z M1779.3,559.7H1909V428.9h-129.7V559.7z"/>
		</g>
		<g>
			<path class="st5" d="M1829.5,659.6c2.1-6.7,7.7-10.5,14.7-10.5c7,0,12.6,7.6,12.6,14.6s-5.6,10.8-12.6,10.8
				C1837.2,674.5,1826.4,669.5,1829.5,659.6z"/>
			<path class="st5" d="M1829.2,637.6c1-3.3,3.9-5.3,7.3-5.3c3.5,0,6.3,3.8,6.3,7.3c0,3.5-2.8,5.4-6.3,5.4
				C1833.1,645,1827.7,642.5,1829.2,637.6z"/>
			<path class="st5" d="M1855.8,632c1.8-5.9,6.7-9.2,12.8-9.2c6.1,0,11,6.6,11,12.8s-4.9,9.5-11,9.5
				C1862.5,645,1853.1,640.6,1855.8,632z"/>
			<path class="st5" d="M1865.8,662.9c0.8-2.5,2.9-3.9,5.5-3.9c2.6,0,4.7,2.8,4.7,5.4c0,2.6-2.1,4-4.7,4
				C1868.7,668.4,1864.7,666.5,1865.8,662.9z"/>
			<path class="st5" d="M1813.9,683.8c0.8-3.3,2.9-5.2,5.5-5.2c2.6,0,4.7,3.7,4.7,7.2s-2.1,5.3-4.7,5.3
				C1816.7,691.1,1812.7,688.6,1813.9,683.8z"/>
			<path class="st5" d="M1859.2,686.2c1.9-2.5,5.3-3.2,8.9-2.1c3.6,1.1,5.5,5.2,4.6,8.2c-0.9,3-4.3,3.7-7.9,2.5
				C1861.2,693.8,1856.3,689.9,1859.2,686.2z"/>
			<path class="st5" d="M1802,649.8c1.9-2.5,5.3-3.2,8.9-2.1c3.6,1.1,5.5,5.2,4.6,8.2c-0.9,3-4.3,3.7-7.9,2.5
				C1804,657.3,1799.1,653.4,1802,649.8z"/>
		</g>
	</g>
	<g>
		<path class="st4" d="M1706,447.2h-246.5c-1.9,0-3.5-1.6-3.5-3.5v-0.9c0-1.9,1.6-3.5,3.5-3.5H1706c1.9,0,3.5,1.6,3.5,3.5v0.9
			C1709.5,445.7,1707.9,447.2,1706,447.2z"/>
		<path class="st4" d="M1705.5,471.9h-245.6c-2.2,0-3.9-1.8-3.9-4l0,0c0-2.2,1.8-4,3.9-4h245.6c2.2,0,3.9,1.8,3.9,4l0,0
			C1709.5,470.1,1707.7,471.9,1705.5,471.9z"/>
		<path class="st4" d="M1705.5,496.5h-245.6c-2.2,0-3.9-1.8-3.9-4l0,0c0-2.2,1.8-4,3.9-4h245.6c2.2,0,3.9,1.8,3.9,4l0,0
			C1709.5,494.7,1707.7,496.5,1705.5,496.5z"/>
		<path class="st4" d="M1705.5,521.2h-245.6c-2.2,0-3.9-1.8-3.9-4l0,0c0-2.2,1.8-4,3.9-4h245.6c2.2,0,3.9,1.8,3.9,4l0,0
			C1709.5,519.4,1707.7,521.2,1705.5,521.2z"/>
		<path class="st4" d="M1705.5,545.8h-245.6c-2.2,0-3.9-1.8-3.9-4l0,0c0-2.2,1.8-4,3.9-4h245.6c2.2,0,3.9,1.8,3.9,4l0,0
			C1709.5,544,1707.7,545.8,1705.5,545.8z"/>
	</g>
	<g>
		<path class="st4" d="M1705.5,613.6h-245.6c-2.2,0-3.9-1.8-3.9-4l0,0c0-2.2,1.8-4,3.9-4h245.6c2.2,0,3.9,1.8,3.9,4l0,0
			C1709.5,611.8,1707.7,613.6,1705.5,613.6z"/>
		<path class="st4" d="M1705.5,638.3h-245.6c-2.2,0-3.9-1.8-3.9-4l0,0c0-2.2,1.8-4,3.9-4h245.6c2.2,0,3.9,1.8,3.9,4l0,0
			C1709.5,636.5,1707.7,638.3,1705.5,638.3z"/>
		<path class="st4" d="M1705.5,662.9h-245.6c-2.2,0-3.9-1.8-3.9-4l0,0c0-2.2,1.8-4,3.9-4h245.6c2.2,0,3.9,1.8,3.9,4l0,0
			C1709.5,661.1,1707.7,662.9,1705.5,662.9z"/>
		<path class="st4" d="M1705.5,687.5h-245.6c-2.2,0-3.9-1.8-3.9-4l0,0c0-2.2,1.8-4,3.9-4h245.6c2.2,0,3.9,1.8,3.9,4l0,0
			C1709.5,685.8,1707.7,687.5,1705.5,687.5z"/>
		<path class="st4" d="M1705.5,712.2h-245.6c-2.2,0-3.9-1.8-3.9-4l0,0c0-2.2,1.8-4,3.9-4h245.6c2.2,0,3.9,1.8,3.9,4l0,0
			C1709.5,710.4,1707.7,712.2,1705.5,712.2z"/>
	</g>
	<g>
		<path class="st4" d="M1898.6,1000.7H1653c-2.2,0-3.9-1.8-3.9-4l0,0c0-2.2,1.8-4,3.9-4h245.6c2.2,0,3.9,1.8,3.9,4l0,0
			C1902.5,999,1900.8,1000.7,1898.6,1000.7z"/>
		<path class="st4" d="M1898.6,1025.4H1653c-2.2,0-3.9-1.8-3.9-4l0,0c0-2.2,1.8-4,3.9-4h245.6c2.2,0,3.9,1.8,3.9,4l0,0
			C1902.5,1023.6,1900.8,1025.4,1898.6,1025.4z"/>
		<path class="st4" d="M1899,1050h-246.5c-1.9,0-3.5-1.6-3.5-3.5v-0.9c0-1.9,1.6-3.5,3.5-3.5H1899c1.9,0,3.5,1.6,3.5,3.5v0.9
			C1902.5,1048.5,1901,1050,1899,1050z"/>
		<path class="st4" d="M1898.6,1074.7H1653c-2.2,0-3.9-1.8-3.9-4l0,0c0-2.2,1.8-4,3.9-4h245.6c2.2,0,3.9,1.8,3.9,4l0,0
			C1902.5,1072.9,1900.8,1074.7,1898.6,1074.7z"/>
		<path class="st4" d="M1898.6,1099.3H1653c-2.2,0-3.9-1.8-3.9-4l0,0c0-2.2,1.8-4,3.9-4h245.6c2.2,0,3.9,1.8,3.9,4l0,0
			C1902.5,1097.5,1900.8,1099.3,1898.6,1099.3z"/>
	</g>
	<g>
		<path class="st6" d="M1701.9,871.9c0-37.7,30.3-68.3,67.7-68.3c37.4,0,67.7,30.6,67.7,68.3c0,37.7-30.3,68.3-67.7,68.3
			C1732.2,940.2,1701.9,909.7,1701.9,871.9z"/>
		<polygon class="st0" points="1815.5,860.2 1781.2,860.2 1781.2,825.7 1758.1,825.7 1758.1,860.2 1723.8,860.2 1723.8,883.6 
			1758.1,883.6 1758.1,918.2 1781.2,918.2 1781.2,883.6 1815.5,883.6 		"/>
	</g>
</g>
<path class="st7" d="M1039.8,1013.3c0,0.2-0.1,0.3-0.2,0.3C1039.7,1013.4,1039.7,1013.3,1039.8,1013.3
	C1039.8,1013,1039.8,1013,1039.8,1013.3z"/>
<g>
	<g>
		<path class="st2" d="M1614.2,1587.6c0,0-32.6-38.3-2-62.6c0,0,22.3-13.6,40.5-12.5c0,0-25.8,43.6-17.4,47.9
			c8.3,4.3,25.3-50.7,25.3-50.7s50.8-5,67.1,3c0,0-43.4,35.8-34.3,38c9.1,2.1,56-33,56-33s47.3,8.1,44.7,37.2
			c-2.5,29.1-18.8,38.1-26,37.3c-7.2-0.8-49-16.9-49.9-11c-0.9,5.9,24.3,25.2,41.9,26.2c0,0-33.3,37.1-55.5,26.4
			c-22.1-10.7-24-27.7-37.8-34c-13.8-6.4-25.6-6.3-19.9,0.1c5.7,6.5,30.7,12.8,38.6,26.9c7.9,14.1,15,23.6-7.9,20.1
			c-22.9-3.5-60.2-20.4-61.8-39.7C1614.2,1587.6,1614.2,1587.6,1614.2,1587.6z"/>
		<g>
			<path class="st2" d="M1770.9,1555.6c0,0-128.4-5-156.7,32c0,0-6.3,18.9-25.6,36.2l-3,8.3c0,0,22.2-23.7,30.2-25.1
				C1615.8,1607,1603.4,1561.1,1770.9,1555.6z"/>
			<path class="st2" d="M1588.6,1623.8c0,0-27.6,20.6-29.5,57.3l5,0.5c0,0,8.8-38,24.7-52.8
				C1604.8,1613.8,1588.6,1623.8,1588.6,1623.8z"/>
		</g>
	</g>
	<g>
		<path class="st2" d="M1500.4,1539.4c0,0,51.8-29.3,27.6-69c0,0-19.3-24.4-40-30.6c0,0,11,59.2,0,60.6c-11,1.4-7.6-66.9-7.6-66.9
			s-54.6-26.5-76-24.4c0,0,33.8,57.8,22.8,56.4s-49-59.9-49-59.9s-55.9-10.4-64.9,23c-9,33.4,5.5,50.1,13.8,52.2
			c8.3,2.1,61.5,1.4,60.1,8.4c-1.4,7-37.3,18.1-57.3,11.8c0,0,22.1,55,51.1,52.2c29-2.8,38-20.9,55.9-22.3c18-1.4,31.1,3.5,22.1,8.4
			c-9,4.9-39.4,1.6-53.9,14c-14.5,12.4-26.2,20.1,0.7,25.7c26.9,5.6,75.3,2.1,84.9-18.8C1500.4,1539.4,1500.4,1539.4,1500.4,1539.4z
			"/>
		<g>
			<path class="st2" d="M1338.8,1439.1c0,0,145,47.4,161.6,100.3c0,0-0.7,23.7,13.8,50.8v10.4c0,0-15.2-35.5-23.5-40.4
				C1490.7,1560.3,1523.2,1514.3,1338.8,1439.1z"/>
			<path class="st2" d="M1514.2,1590.3c0,0,22.4,34.3,9.6,75.9l-5.8-1.6c0,0,5.6-45.9-6.1-69
				C1500.2,1572.5,1514.2,1590.3,1514.2,1590.3z"/>
		</g>
	</g>
	<g>
		<path class="st8" d="M1582.8,1499.1c0,0-68.3-38.6-36.4-90.9c0,0,25.5-32.1,52.8-40.4c0,0-14.6,78,0,79.9
			c14.6,1.8,10-88.1,10-88.1s71.9-34.9,100.1-32.1c0,0-44.6,76.2-30,74.4c14.6-1.8,64.6-79,64.6-79s73.7-13.8,85.6,30.3
			c11.8,44.1-7.3,66.1-18.2,68.9c-10.9,2.8-81,1.8-79.2,11c1.8,9.2,49.2,23.9,75.5,15.6c0,0-29.1,72.5-67.4,68.9
			c-38.2-3.7-50.1-27.5-73.7-29.4c-23.7-1.8-41,4.6-29.1,11c11.8,6.4,51.9,2.1,71,18.5c19.1,16.4,34.6,26.5-0.9,33.8
			c-35.5,7.3-99.2,2.8-112-24.8C1582.8,1499.1,1582.8,1499.1,1582.8,1499.1z"/>
		<g>
			<path class="st8" d="M1795.8,1366.9c0,0-191.1,62.4-213,132.2c0,0,0.9,31.2-18.2,67v13.8c0,0,20-46.8,30.9-53.3
				C1595.5,1526.6,1552.7,1466,1795.8,1366.9z"/>
			<path class="st8" d="M1564.6,1566.1c0,0-29.5,45.2-12.7,100.1l7.6-2.1c0,0-7.4-60.5,8.1-91
				C1583,1542.7,1564.6,1566.1,1564.6,1566.1z"/>
		</g>
	</g>
	<path class="st8" d="M1580.5,1785.4c73.9,0,133.7-60.4,133.7-134.9h-267.4C1446.7,1725,1506.6,1785.4,1580.5,1785.4z"/>
	<path class="st8" d="M1716,1792.3h-271.1l0,0c0-9.2,7.4-16.6,16.5-16.6h238.1C1708.6,1775.6,1716,1783.1,1716,1792.3L1716,1792.3z"
		/>
	<rect x="1442.3" y="1650.5" class="st2" width="274.9" height="4.1"/>
</g>
<g>
	<path class="st2" d="M898.1,1314.6c-2.9-68-9.3-127.2-16.9-168.5c-12.1-65.8-23-103.6-23.2-104c-1.6-5.8-24.7-29.2-75.9-28.5
		c-51.3,0.7-46.4,31.4-46.4,31.4l0,0c0,1,0.1,2,0.4,2.7c0.5,1.6,47.6,161.8,45.5,368.6c0,2.9-0.4,7.9-0.2,11.3
		c0,0,118.8,2.9,118.9,0C904.4,1409.6,902.4,1359.5,898.1,1314.6z"/>
	<path class="st8" d="M913,1415.3c0,2.9-1.7,5.2-3.6,5.2h0c-2,0-3.5-2.4-3.6-5.2H803.9c0,2.9-1.7,5.2-3.6,5.2h0
		c-2,0-3.6-2.4-3.6-5.3c0.6-59.2-3-114.5-8.5-163.3c-13.5-121.7-38.6-203-38.9-204.1c-0.2-0.7-0.4-1.7-0.4-2.7
		c0,0-4.9-30.7,46.4-31.4c51.3-0.7,74.4,22.7,76,28.5c0.1,0.3,6.3,21.7,14.5,60.3c2.7,12.8,5.7,27.4,8.7,43.8
		c7.6,41.3,14,100.4,16.9,168.5C915.7,1359.5,917.2,1397.3,913,1415.3z"/>
	<path class="st8" d="M789.2,1420.5h399.3c0,0-9.3-35.3-240.5-30.1C784.3,1394.2,789.2,1420.5,789.2,1420.5z"/>
	<g>
		<path class="st2" d="M756.7,1789.4c46.3-220,34.4-354.9,34.3-356.6c-0.1-3.4,6.5-6.5,10.1-6.6c3.6-0.1,19.6-1,21.4,1.9
			c2.4,3.8,11.7,170.1-57.3,361.3H756.7z"/>
	</g>
	<g>
		<path class="st2" d="M1129.5,1789.4c-46.3-220-34.4-354.9-34.3-356.6c0.1-3.4-6.5-6.5-10.1-6.6c-3.6-0.1-19.6-1-21.4,1.9
			c-2.4,3.8-11.7,170.1,57.3,361.3H1129.5z"/>
	</g>
	<g>
		<path class="st2" d="M1203.3,1789.4c-46.3-220-34.4-354.9-34.3-356.6c0.1-3.4-6.5-6.5-10.1-6.6c-3.6-0.1-19.6-1-21.4,1.9
			c-2.4,3.8-11.7,170.1,57.3,361.3H1203.3z"/>
	</g>
	<g>
		<path class="st2" d="M831,1789.4c46.3-220,34.4-354.9,34.3-356.6c-0.1-3.4,6.5-6.5,10.1-6.6c3.6-0.1,19.6-1,21.4,1.9
			c2.4,3.8,11.7,170.1-57.3,361.3H831z"/>
	</g>
	<path class="st2" d="M1187.8,1431.8H790.2c-5,0-9-4.1-9-9v-2.4c0-5,4.1-9,9-9h397.6c5,0,9,4.1,9,9v2.4
		C1196.8,1427.8,1192.8,1431.8,1187.8,1431.8z"/>
</g>
<path class="st9" d="M933.6,707.8c-1.2-2.7-14.7-31.9-60.6-16c0,0,23.3-5.9,30.9,2.5c0,0-19.8-6.4-30.7,2.3
	c-10.9,8.7-9.8,33.3-7.2,40.5c2.7,7.2,18.3,27.7,26.9,26.7c3.3-0.4,6.6-1.9,9.5-3.7c-0.8,4.1-1.5,8.5-1.9,13.3
	c-3.9,44.4,28.7,73.8,42.4,63.9c8.8-6.4,18,9.4,18,9.4l65.8-114.7C1026.8,732.1,964,672.5,933.6,707.8z"/>
<path class="st10" d="M1057.1,978c-62.3,28.1-109.2-71.1-105.2-72.1c6.2-7.1,12.7-32.5,8.1-68.9l3.2,0.2l54.2,4c0,0,0.8,17,2.7,32.8
	c1.2,10.4,2.9,20.3,5.1,24.6c0.6,1.3,12.4,3,12.4,3C1038.7,902.7,1073.7,970.5,1057.1,978z"/>
<path class="st11" d="M1455.1,1790.4h-109.3c0,0-2.6-16.8,3.1-29.5c5.5-12.2,9-15.6,3-29.7c6.9,7.2,27.2,12.4,43,10.3
	c1.9,3.2,12.5,20.1,19,24.8C1421,1771.4,1452.9,1769.5,1455.1,1790.4z"/>
<path class="st12" d="M1262.7,1789.4h-109.3c0,0-2.6-16.8,3.1-29.5c5.5-12.2,16.1-20.4,19.3-34.5c6.9,7.2,11,17.2,26.8,15.1
	c1.9,3.2,12.5,20.1,19,24.8C1228.6,1770.4,1260.5,1768.6,1262.7,1789.4z"/>
<g>
	<path class="st10" d="M1390.1,924.5l12.7,17.8c0,0-5.6,4.8-14.4,12.5c-2.7,2.3-4.3,3.5-4.3,3.5c-7.2,6.1-16,13.1-25.6,20.9
		l-0.1,0.1c-16.7,13-35.8,27.3-53,38.3c-1.6,1-3.1,1.9-4.6,2.9c-10.5,6.3-20.2,11.3-28,14c-0.9,0.3-1.7,0.5-2.7,0.8
		c-22.9,6.2-69.2-1.9-114.6-15.9c-6.3-1.9-12.4-4-18.5-5.9c-22.3-7.5-43.3-16.1-60.3-24.9c-10.2-5.1-19.2-10.3-25.9-15.4
		c-2.4-1.7-4.7-3.4-6.6-5.2c-36.8-30.4-19.5-60-12.5-60c8.7-0.1,21,2.2,35.2,5.9c22.3,6.1,49.9,15.7,76.8,25.8
		c14.8,5.5,29.5,11.1,43.4,16c8.3,3.1,16.2,5.9,23.4,8.4c13.9,4.7,25.5,8.2,33.6,9.5c5.2,0.9,15-1,26.9-4.3c3.2-0.9,6.5-1.8,10-2.9
		c19.2-5.9,42.3-14.5,62.3-22.5c9.9-3.9,19-7.7,26.6-10.9C1382.1,927.9,1390.1,924.5,1390.1,924.5z"/>
</g>
<path class="st11" d="M885,1271.8c0,0-24.5,77.1,30.2,113.6c73.3,49,276.5,7.2,299.7,32.3c5.9,6.3-11.9,9.5-21.9,100.1
	c-14.4,130.3-26.1,203.1-26.1,203.1s2.5,14.9,17.9,22.6c10.1,5,22.9,1.9,22.9,1.9s149.3-330.6,134.4-376.5
	c-25.8-79.4-168.3-71.6-333.6-118.6C907.7,1221.8,885,1271.8,885,1271.8z"/>
<path class="st13" d="M962.4,1270.2c72.6-6.8,270.6-10.2,313.4,19.5c52.7,36.5,124.3,454.2,124.3,454.2s-5.5,4.4-17.5,5.6
	c-11.1,1.1-35.3-6.1-35.3-6.1s-117.8-188.1-124.8-235.2c-7.1-47.1-3.4-88.9-23.4-90.3c-19.9-1.4-293.6,30.4-317-45.1
	c-18.3-59,3.6-116.1,3.6-116.1S895.4,1276.4,962.4,1270.2z"/>
<path class="st7" d="M1113.3,1028.4c4.5,16.6,8.2,31.4,10,41.5c8.4,46.2,15.7,187,15.7,187c-74.1,115.4-280.5,80.7-280.5,80.7
	c-4.5-43.8,12.9-141.1,23.4-227.6c2.6-21.2,4.8-41.8,6.1-60.8c1.2-16.5,3.1-31.2,5.6-44.3c17.6-92.5,62.8-102.7,62.8-102.7
	c21.2,41.4,87.9,52.6,87.9,52.6c0.8-23.3-6.7-53-6.7-53c8.5,1,36.6,5.3,44.7,8.3c9.5,3.5,88.5,39.9,88.5,39.9
	S1173.5,1008.4,1113.3,1028.4z"/>
<path class="st14" d="M1017.5,841.2c0,0,0.8,17,2.7,32.8c-29.7,2.8-48.7-22.5-56.9-36.8L1017.5,841.2z"/>
<path class="st10" d="M1029.2,855c0,0-70,9.8-75.3-34.2c-5.4-44-18-72.4,26.4-80.6c44.4-8.1,55.2,7.6,60.5,21.9
	C1046.1,776.3,1047.2,851.3,1029.2,855z"/>
<path class="st9" d="M1035.7,737.9c-12.4-11.9-20.3-8-24.4-3.4c-40.9-16.5-61.8,17.9-61.8,17.9c-0.9,32.2-21.3,53.1-21.3,53.1
	s13.7,6.4,42.3-4.9c8.7-3.4,16-10.9,21.8-19.5c-9.5,21.6-23.9,38.1-23.9,38.1c33.2-20.7,41.3-71.8,42.1-77.2
	c4.7,3.3,14.2,10.7,17.8,18.7c4.9,10.8,9.2,33.7,15.8,32.1C1044.2,792.6,1054.4,755.7,1035.7,737.9z"/>
<path class="st10" d="M1390.1,924.5c0,0,6.1-5.4,9.7-10.8c3.6-5.4,5-10.8,11.8-15.5c6.8-4.7,14.3-16.9,15.3-14.7
	c1.1,2.2-3.6,15.5-3.2,16.9c0.4,1.4,19.2,5.6,26.4,3.5c7.1-2.1,24.9-7.8,24.6-4.2c-0.4,3.6-19.2,23.7-25.3,27.3
	c-6.1,3.6-24.2,2.5-31.4,5c-7.1,2.5-15.1,10.3-15.1,10.3L1390.1,924.5z"/>
<path class="st10" d="M1436.9,906.3c0,0,18.5-15.1,26.6-13.2l-13.3,13.2H1436.9z"/>
<path class="st10" d="M1453,922.1l28-18.9c0,0-5.2-2-10.9,0C1464.5,905.2,1453,922.1,1453,922.1z"/>
<path class="st15" d="M1042.9,1258c-1.2-0.7-143.4,15-160.9-148.1c2.6-21.2,4.8-41.8,6.1-60.8c1.2-16.5,3.1-31.2,5.6-44.3
	c12.8-2,28.2,11.9,35,32.5C942.9,1079.8,1042.5,1256.2,1042.9,1258z"/>
<g>
	<path class="st10" d="M1131.6,1264.4l-7.9,20.5c0,0-7.1-2.1-18.3-5.4c-3.4-1-5.3-1.7-5.3-1.7c-9-2.8-19.6-6.4-31.3-10.2l-0.2,0
		c-19.9-7.1-42.2-15.4-60.8-24c-1.7-0.8-3.3-1.6-4.9-2.4c-11-5.4-20.4-10.9-26.9-16.1c-0.8-0.6-1.4-1.1-2.1-1.9
		c-17.7-16-36.2-59.5-49.3-105.5c-1.8-6.3-3.5-12.7-5.2-18.8c-5.9-22.9-10.2-45.3-12.2-64.5c-1.3-11.5-1.9-21.8-1.4-30.3
		c0.1-3,0.3-5.8,0.7-8.4c5.2-47.7,39.2-49.2,43-43.3c4.9,7.3,9.6,19,14.3,33c7.1,22.2,14.1,50.7,20.5,79c3.5,15.5,6.9,31,10.4,45.4
		c1.9,8.7,3.9,16.9,5.8,24.4c3.7,14.4,7.1,26,10.4,33.5c2.1,4.9,9,12.1,18.2,20.4c2.4,2.2,5.1,4.5,7.8,6.8
		c15.4,13,35.1,27.8,52.7,40.4c8.6,6.2,16.8,11.9,23.6,16.6C1124.4,1259.5,1131.6,1264.4,1131.6,1264.4z"/>
</g>
<g>
	<path class="st10" d="M1129.8,1265.1c0,0,35.5-10.1,43.9-7.8c8.4,2.4,37.4,21.7,33.3,26.9c-4.1,5.2-29.6-3.1-41.3-1.6
		c-11.7,1.6-20.8,7.4-29.2,6.2c-8.4-1.3-17.3-4.6-17.3-4.6L1129.8,1265.1z"/>
	<path class="st10" d="M1129.8,1265.1c0,0,17.3-9,22.3-14.1c0.6-0.6,1.7-0.5,2.2,0.3c1.3,2.1,2.6,6.2-3.5,10.2
		C1141.9,1267.2,1129.8,1265.1,1129.8,1265.1z"/>
</g>
<path class="st7" d="M945.5,937c0,0-33.1,16.2-44.6,38.4c-11.5,22.2-13,93,4.9,185c0,0,53.9-3.6,89.1-50.7
	C994.9,1109.6,981.8,923.7,945.5,937z"/>
<path class="st15" d="M959.1,887.6c0,0-12.1,7.6-12.1,18.8c0,0,14.2,39.2,97.4,48.4C1044.4,954.7,967.9,916.8,959.1,887.6z"/>
<path class="st15" d="M1024,896.9c0,0,21,38.9,20.4,57.8c0,0,1.4-43-1.5-53c-3-10-20.7-14.1-20.7-14.1L1024,896.9z"/>
<path class="st0" d="M1008.6,831.6c0.7,0,7.4,6,16.2,4.3c8.8-1.7,8.7-8.6,8.7-8.6s-6-1-11.3,0
	C1016.9,828.2,1008.6,831.6,1008.6,831.6z"/>
<g>
	<path class="st8" d="M1168.5,576.1h-156.6c-10,0-18.1-8.2-18.1-18.1V405.5c0-10,8.2-18.1,18.1-18.1h156.6c10,0,18.2,8.2,18.2,18.2
		V558C1186.6,568,1178.5,576.1,1168.5,576.1z"/>
	<path class="st1" d="M1161.7,567.9h-143c-9.1,0-16.6-7.5-16.6-16.6V412.1c0-9.1,7.5-16.6,16.6-16.6h143c9.1,0,16.6,7.5,16.6,16.6
		v139.3C1178.3,560.5,1170.8,567.9,1161.7,567.9z"/>
	<g>
		<g>
			<path class="st8" d="M1086.2,412.7c0-2.2,1.8-4,4-4c2.2,0,4,1.8,4,4c0,2.2-1.8,4-4,4C1088,416.8,1086.2,415,1086.2,412.7z"/>
			<path class="st8" d="M1118.4,418.4c1.1-1.9,3.5-2.6,5.4-1.6c1.9,1.1,2.6,3.5,1.6,5.5c-1.1,1.9-3.5,2.6-5.4,1.6
				C1118,422.8,1117.3,420.4,1118.4,418.4z"/>
			<path class="st8" d="M1146,440.6c1.9-1.2,4.3-0.7,5.5,1.2c1.2,1.9,0.7,4.4-1.2,5.6c-1.9,1.2-4.3,0.7-5.5-1.2
				C1143.7,444.3,1144.2,441.8,1146,440.6z"/>
			<path class="st8" d="M1159.7,474.8c2.2,0,4,1.8,4,4c0,2.2-1.8,4-4,4c-2.2,0-4-1.8-4-4C1155.7,476.7,1157.5,474.8,1159.7,474.8z"
				/>
			<path class="st8" d="M1152.7,514.6c1.6,1.6,1.6,4.1,0,5.7c-1.6,1.6-4.1,1.6-5.7,0c-1.6-1.6-1.6-4.1,0-5.7
				C1148.6,513,1151.2,513,1152.7,514.6z"/>
			<path class="st8" d="M1127.6,540c1.6,1.6,1.6,4.1,0,5.7c-1.6,1.6-4.1,1.6-5.7,0c-1.6-1.6-1.6-4.1,0-5.7
				C1123.6,538.4,1126.1,538.4,1127.6,540z"/>
			<path class="st8" d="M1086.2,553.1c0-2.2,1.8-4,4-4c2.2,0,4,1.8,4,4c0,2.2-1.8,4-4,4C1088,557.1,1086.2,555.3,1086.2,553.1z"/>
		</g>
		<g>
			<path class="st8" d="M1061.8,418.4c-1.1-1.9-3.5-2.6-5.4-1.6c-1.9,1.1-2.6,3.5-1.6,5.5c1.1,1.9,3.5,2.6,5.4,1.6
				C1062.2,422.8,1062.9,420.4,1061.8,418.4z"/>
			<path class="st8" d="M1034.2,440.6c-1.9-1.2-4.3-0.7-5.5,1.2c-1.2,1.9-0.7,4.4,1.2,5.6c1.9,1.2,4.3,0.7,5.5-1.2
				C1036.6,444.3,1036,441.8,1034.2,440.6z"/>
			<path class="st8" d="M1020.5,474.8c-2.2,0-4,1.8-4,4c0,2.2,1.8,4,4,4c2.2,0,4-1.8,4-4C1024.5,476.7,1022.7,474.8,1020.5,474.8z"
				/>
			<path class="st8" d="M1027.5,514.6c-1.6,1.6-1.6,4.1,0,5.7c1.6,1.6,4.1,1.6,5.7,0c1.6-1.6,1.6-4.1,0-5.7
				C1031.6,513,1029,513,1027.5,514.6z"/>
			<path class="st8" d="M1052.6,540c-1.6,1.6-1.6,4.1,0,5.7c1.6,1.6,4.1,1.6,5.7,0c1.6-1.6,1.6-4.1,0-5.7
				C1056.6,538.4,1054.1,538.4,1052.6,540z"/>
		</g>
	</g>
	<g>
		<ellipse class="st8" cx="1093.1" cy="478.9" rx="4" ry="4"/>
		<g>
			<rect x="1092.5" y="428.5" class="st8" width="1.1" height="50.4"/>
		</g>
		<g>
			<polygon class="st8" points="1093.6,480.1 1091.6,477.5 1118,456.6 1120.1,459.1 			"/>
		</g>
	</g>
</g>
<g>
	<path class="st2" d="M2888,1466h-959.1c-12.2,0-22.3-10-22.3-22.3v-12.2c0-12.2,10-22.3,22.3-22.3H2888c12.2,0,22.3,10,22.3,22.3
		v12.2C2910.3,1456,2900.3,1466,2888,1466z"/>
	<g>
		<g>
			<path class="st0" d="M2861.3,1789.2h-7.2l-55.5-211.9c0,0,0,0,0,0l-12.6-48.2c0,0,0,0,0,0l-16.4-62.5l32.7-0.6l11.1,61l8.3,45.7
				c0,0.2,0.1,0.4,0.1,0.7L2861.3,1789.2z"/>
		</g>
		<path class="st2" d="M2813.5,1527c-6,8.8-14.3,25.5-14.8,50.2l-12.6-48.2c0,0,0,0,0,0l-16.4-62.5l32.7-0.6L2813.5,1527z"/>
	</g>
	<g>
		<g>
			<path class="st0" d="M1942.6,1789.2h7.2l55.5-211.9c0,0,0,0,0,0l12.6-48.2c0,0,0,0,0,0l16.4-62.5l-32.7-0.6l-11.1,61l-8.3,45.7
				c0,0.2-0.1,0.4-0.1,0.7L1942.6,1789.2z"/>
		</g>
		<path class="st2" d="M1990.4,1527c6,8.8,14.3,25.5,14.8,50.2l12.6-48.2c0,0,0,0,0,0l16.4-62.5l-32.7-0.6L1990.4,1527z"/>
	</g>
</g>
<path class="st16" d="M2325,1146.6c0,0-11.1-19.8-15.9-24.4c-4.8-4.6-11.5-18.4-14.6-15.6c-3.1,2.8,3,12.5,0.6,16.3
	c-2.4,3.8-32.8-3.2-34.7,1.1c-1.9,4.3-0.6,17.6,10.4,21.6c11,4,40.5,10.6,44.6,16C2319.5,1167,2325,1146.6,2325,1146.6z"/>
<path class="st2" d="M2628.4,989.4c0,0-18-8.2-74.1,43c-56.1,51.2-94.6,104.7-124.6,107.1c-30,2.3-107.4,2.5-107.4,2.5l-8.6,18.3
	c0,0-1.5,7.1,46.1,22.3c40.6,13,92.1,17.1,95.9,16.7c38.5-4.7,130.6-66.8,144.7-85.4C2614.3,1095.1,2628.4,989.4,2628.4,989.4z"/>
<path class="st17" d="M2221.8,1552.4c0.9,8.6,0.1,21.7-1.8,37.2c-7.6,61.2-32.3,158.8-32.3,158.8l-30.9,3.8
	c2.3-17.3-4.2-83.4-12.7-156.7c-12.9-110.6-30.6-237.4-30.6-237.4s67.4-56.2,107.1-40.6C2260.2,1332.9,2217.2,1509.5,2221.8,1552.4z
	"/>
<path class="st8" d="M2220,1589.5c-7.6,61.2-32.3,158.8-32.3,158.8l-30.9,3.8c2.3-17.3-4.2-83.4-12.7-156.7c11,2,40.9,5.8,65.9-3.7
	C2213.8,1590.3,2217.2,1589.6,2220,1589.5z"/>
<path class="st9" d="M2191.7,904.1c0,0-16.3-7.9-34.6,0c-18.3,7.9-31.6,41.5-23.4,72.9c8.2,31.4-19.5,31.9-6.7,57.1
	c4.5,8.9,64.7,16.5,66.8-18.3c1.3-21.6-18.1-22.6-12.4-46C2187,946.4,2191.7,904.1,2191.7,904.1z"/>
<path class="st10" d="M2278.1,1545.7c1.8,10.6,1.3,28.3-0.4,48.9c-5.3,62.3-22.1,151.4-22.1,151.4l-30.6,7.1
	c1.2-17.1-8.8-81.2-21.4-153c-19.6-111.6-45.5-241.8-45.5-241.8s63.8-60.3,104.4-47.2C2303,1324.2,2270.8,1503.2,2278.1,1545.7z"/>
<path class="st12" d="M2157.2,1746c0,0-7.4,13.6-21.4,16.8c-8.8,2-16.4,6.7-21,13.2c-3.9,5.5-0.1,13.2,6.7,13.2l71.2-0.4
	c6.1,0,10.8-5.3,10.1-11.4c-0.6-5.3-1.2-11.5-1.4-16.3c-0.6-10.4-11.7-19.7-11.7-19.7s-9.8,5.7-13.5,6.3
	C2167.9,1749.2,2157.2,1746,2157.2,1746z"/>
<path class="st17" d="M2143.6,1054.1c0,0-46.5,79.1-55.9,143.6c0,0,22.6,30.8,31.8,9.2S2194.8,1069.5,2143.6,1054.1z"/>
<path class="st9" d="M2152.5,913.6c0.5-0.8,21.3-34,60.2-40.7c31.5-5.4,61,17.1,65.9,49c4.9,32-0.1,73.5-51.9,88.5L2152.5,913.6z"/>
<path class="st10" d="M2162,1056.4l58.6,35.1l14.8-41.6c0,0-6.8-15.2-8.8-39.4c-0.8-10.2-0.8-22,0.9-35l-51,22.3
	c0,0,0.9,4.7,1.2,11.5c0.4,7.4,0.1,17.3-2.5,26.6C2173.1,1043.9,2169,1051.3,2162,1056.4z"/>
<path class="st17" d="M2175.4,1035.9c28.1,1,51.3-25.5,51.3-25.5l-48.8-1.1C2178.3,1016.7,2178,1026.6,2175.4,1035.9z"/>
<path class="st10" d="M2162.7,1019.3c0,0,55.1,18.5,77.2-25.2c23.9-47.1,3.3-83.9-15.6-87.5c-37.6-7.2-60.6,6-68.2,21
	C2148.5,942.5,2132.3,1009.3,2162.7,1019.3z"/>
<path class="st0" d="M2186.5,995.4c0,0-2.7,5.7-17.3,1.5c0,0-12.2-3.5-10.4-10C2158.9,986.8,2171.9,984.8,2186.5,995.4z"/>
<path class="st13" d="M2302.3,1507c-15.9,15.3-133.5,47-199.7,24.2c-11.9-4.1,7.1-373.5,18.4-444.9c3.1-19.6,18.5-34.8,38-37.4
	c3.3-0.5,6.9-0.9,10.7-1.3c-0.8,8.8,2.2,17,17.3,20c20.2,4,39.2-8.9,49.1-17.8c15.8,3.3,25,4.5,37.5,9.8c13.8,5.8,22,20.2,20,35.1
	l-3.8,28.2l-12.1,89.8c-1.5,11.3-1.4,22.7,0.3,34c5.1,34.1,13.3,117.2,18.8,180.4C2300.6,1471.6,2303.1,1506.2,2302.3,1507z"/>
<path class="st11" d="M2296.8,1427.2c-1.7-2-113.2-133.2-117.2-203c-4-70.3,55.9-121.7,55.9-121.7c23.9-1.6,41.5,6.3,54.3,20.6
	l-12.1,89.8c-1.5,11.3-1.4,22.7,0.3,34C2283.1,1280.8,2291.3,1363.9,2296.8,1427.2z"/>
<path class="st9" d="M2201.3,911.7c0,0-5.2,52.1,43.8,70.6c19.5,7.3,29.6-72.2-11.1-88.1c-40.7-15.9-80.9,3-85.7,30.8
	c-4.8,27.8-1.1,33.6-1.1,33.6S2166.3,905.7,2201.3,911.7z"/>
<path class="st10" d="M2231.1,1082.2c0,0-22.5,89.7-23.4,125.3c0,0-49.3,86.9-52.2,93.1c-2.9,6.2,17.8,14.6,17.8,14.6
	s61.9-66.6,73.8-94.5c11.9-28,54.2-118.9,37.3-146.1C2267.5,1047.4,2231.1,1082.2,2231.1,1082.2z"/>
<path class="st10" d="M2087.7,1197.7c0,0-4.4,61.1,38.7,109.2c0,0,11.8-14.3,10.3-18.7c-1.5-4.4-18.4-72.5-30.7-82.2
	C2093.7,1196.3,2087.7,1197.7,2087.7,1197.7z"/>
<path class="st17" d="M2155.5,1300.6c0,0-27.6-0.2-29.1,6.3c-1.5,6.5,7.1,27,27.3,19.9c20.2-7.1,19.7-11.6,19.7-11.6L2155.5,1300.6z
	"/>
<path class="st10" d="M2136.7,1288.2c0,0,22.2,10.3,14.6,21.3c-7.5,11-22.6,4.4-24.9-2.6C2124.1,1299.9,2136.7,1288.2,2136.7,1288.2
	z"/>
<path class="st6" d="M2214.9,1129.5c0,0,28.9,27.1,73.5,22.9c0,0,22-78.6-13.3-88.2C2239.9,1054.6,2210.7,1101.1,2214.9,1129.5z"/>
<path class="st11" d="M2128.4,1067.9l-25.5,44c0,0,3.3,20.4,22.4,22.4C2144.4,1136.4,2128.4,1067.9,2128.4,1067.9z"/>
<path class="st9" d="M2262.2,904.5c0,0,16.3-8.9,34.6,0c18.3,8.9,31.6,46.8,23.4,82.1c-8.2,35.4,19.5,36,6.7,64.3
	c-4.5,10.1-64.7,18.6-66.8-20.6c-1.3-24.3,18.1-25.5,12.4-51.8C2266.9,952.2,2262.2,904.5,2262.2,904.5z"/>
<path class="st0" d="M2277.7,1594.6c-5.3,62.3-22.1,151.4-22.1,151.4l-30.6,7.1c1.2-17.1-8.8-81.2-21.4-153
	C2219.9,1601.9,2250,1603.2,2277.7,1594.6z"/>
<path class="st11" d="M2224.1,1746c0,0-7.4,13.6-21.4,16.8c-8.8,2-16.4,6.7-21,13.2c-3.9,5.5-0.1,13.2,6.7,13.2l71.2-0.4
	c6.1,0,10.8-5.3,10.1-11.4c-0.6-5.3-1.2-11.5-1.4-16.3c-0.6-10.4-11.7-19.7-11.7-19.7s-9.8,5.7-13.5,6.3
	C2234.9,1749.2,2224.1,1746,2224.1,1746z"/>
<path class="st9" d="M2617.5,817.6c0,0-1-36.9,47.2-44.1c48.3-7.2,61.6,4.1,69.8,16.5c8.2,12.4,23.6,63.1,22,83.3
	c-1.5,20.2-56.6,45.1-55.7,56.9S2617.5,817.6,2617.5,817.6z"/>
<path class="st17" d="M2402.6,1762.5c1,12.3-16,15.1-35.7,15.8c-19.7,0.7-13.8,4.9-40.8,9.4c-27,4.6-37.7-3-39.6-6.7
	c-1.7-3.3,10.9-8.2,24.3-13.8c1.7-0.7,3.4-1.4,5.1-2.1c15.1-6.5,23.7-19.9,35.6-32.4c11.3-11.8,22.3-49.9,22.3-49.9l36.7-7.4
	c0,0-10.7,34.3-14.5,48.9c-2.2,8.6,0.8,18.3,3.4,25.7C2400.8,1754.1,2402.2,1758.2,2402.6,1762.5z"/>
<path class="st5" d="M2366.8,1778.3c-19.7,0.7-13.8,4.9-40.8,9.4c-27,4.6-37.7-3-39.6-6.7c-1.7-3.3,10.9-8.2,24.3-13.8l0.2,0.2
	c0,0,18.9,6.7,40.8,1c17.9-4.6,35.3-15.2,47.6-18.5c1.4,4,2.9,8.1,3.2,12.5C2403.5,1774.8,2386.5,1777.6,2366.8,1778.3z"/>
<path class="st18" d="M2685.2,1300.8c0,0-243.7,12.9-285.4,47.7c-41.8,34.8-51.4,377.9-51.4,377.9c5.9,6.7,10.5,6.8,20.4,6.5
	c9.5-0.3,29.1-7.4,29.1-7.4s60.1-165.7,62.7-204.6c2.5-38.9,14-104.6,30.7-107.7c16.7-3.1,211.9,28.5,236.4-31.9
	c24.5-60.4-8.7-112.7-8.7-112.7L2685.2,1300.8z"/>
<path class="st2" d="M2799.6,1361.8c-10.5,7.1-37.5,11-69,12.1c-56.2,2.1-126.4-4.7-140.2-17.9c-3.6-3.4-5.3-9-5.8-16.2
	c-1.5-21.8,8.8-57.6,15.7-87.2c4.5-19.3,7.6-35.9,5-44.4c-7.6-25.9-31.3-78.6-33.4-95.9c-2-17.3,18.5-110.2,46.8-121.7
	c28.4-11.5,137.8,0,137.8,0c42.7,8.8,44.5,100.7,30.3,178.9c-0.4,2-0.7,4-1.1,6C2770.4,1255,2828.9,1342,2799.6,1361.8z"/>
<path class="st10" d="M2637.6,998.6c0.8,5,14.5,13.2,43.7,5.4c28-7.5,31.4-16.7,31.4-22.7c0-7.2-12.2-16.9-12-61.2l-3.4,0.7
	l-56.5,11.3c0,0,1.3,17.9,1.3,34.8C2642.2,981.1,2636.4,990.2,2637.6,998.6z"/>
<path class="st17" d="M2640.8,932.1c0,0,1.3,17.9,1.3,34.8c31.6-0.9,48.3-30,55.2-46.1L2640.8,932.1z"/>
<path class="st10" d="M2630.3,948.1c0,0,74.8,1.2,74.9-45.8c0.1-47,9.7-78.5-38-81.3c-47.8-2.8-57.1,15.1-60.9,30.8
	C2602.5,867.6,2610.8,946.6,2630.3,948.1z"/>
<path class="st9" d="M2633,819.9c0,0,20.5,55.1,51.9,63.3c31.4,8.2,45.1-0.3,45.1-0.3s-24.1-19.3-29.1-53
	C2700.9,829.8,2648.5,793.7,2633,819.9z"/>
<path class="st9" d="M2638.1,824.4c0,0-15.3,12.3-19,24.3c-3.7,12-5.4,36.6-12.5,35.8c0,0-15.4-37.5,1.9-58.7
	C2626.9,803.3,2638.1,824.4,2638.1,824.4z"/>
<path class="st0" d="M2646.9,919.6c0,0-1.4,6-16.1,5.1c0,0-12.4-0.8-12-7.3C2618.8,917.4,2630.8,912.7,2646.9,919.6z"/>
<path class="st10" d="M2563.6,1776c-0.4,12.3-17.6,13.2-37.3,11.6c-19.6-1.5-14.2,3.3-41.6,4.7c-27.3,1.5-37.1-7.3-38.6-11.2
	c-1.3-3.5,11.7-6.9,25.7-10.9c1.8-0.5,3.5-1,5.3-1.5c15.7-4.7,25.8-17.1,39-28.1c12.5-10.4-11.3-65.1-11.3-65.1l35.4-15.3
	c0,0,4.7,38.4,11.5,72.1c1.8,8.7,8.2,23.2,10,30.9C2562.7,1767.4,2563.7,1771.6,2563.6,1776z"/>
<path class="st7" d="M2799.6,1361.8c-10.5,7.1-37.5,11-69,12.1c-51.9-11.9-110.9-25.8-146.1-34c-1.5-21.8,8.8-57.6,15.7-87.2
	c41,12.6,101.9-30.4,122.4-47.4c21.5-17.8,20.9-77.3,20.9-77.3l43.3,41.6c-0.4,2-0.7,4-1.1,6C2770.4,1255,2828.9,1342,2799.6,1361.8
	z"/>
<path class="st5" d="M2526.3,1787.6c-19.6-1.5-14.2,3.3-41.6,4.7c-27.3,1.5-37.1-7.3-38.6-11.2c-1.3-3.5,11.7-6.9,25.7-10.9l0.2,0.3
	c0,0,18,8.8,40.4,5.7c18.3-2.6,36.7-11,49.4-12.9c1,4.2,1.9,8.4,1.8,12.8C2563.1,1788.3,2545.9,1789.1,2526.3,1787.6z"/>
<path class="st9" d="M2736.8,1318c-61.5-4.8-246.1,0.6-282.7,25.3c-45.1,30.3,63.6,377.8,63.6,377.8h34.9c0,0,20.3-201.8,7.7-242
	c-11.6-37.2-19.2-50.5-2.3-51.9c16.9-1.4,225.3,35.6,245.9-26.3c16.1-48.3-1.9-94.7-1.9-94.7S2793.5,1322.4,2736.8,1318z"/>
<path class="st2" d="M2756.6,990.6c0,0,42.8,3.7,46.1,37.8c2.5,25.9,21.2,209.8,7.7,225.7c-37.7,45-163.6,54.5-182.1,61.4l-5.1-21.3
	c0,0,134.3-68.3,132.3-83.8C2753.5,1195,2715.5,984.5,2756.6,990.6z"/>
<path class="st9" d="M2711.2,792c0,0-3.1-19.7,24-24.8c27.1-5.1,27.6,52.9,30.5,66.9c2.9,14-4.3,22.4-14.7,23.2
	C2740.7,858.2,2711.2,792,2711.2,792z"/>
<g>
	<path class="st10" d="M2621.8,1293.3c0,0-38.3-10.9-47.4-8.4c-9.1,2.6-40.3,23.4-35.9,29.1c4.4,5.7,31.9-3.4,44.6-1.7
		c12.7,1.7,22.4,8,31.6,6.7c9.1-1.4,18.6-5,18.6-5L2621.8,1293.3z"/>
	<path class="st10" d="M2621.8,1293.3c0,0-18.7-9.7-24-15.2c-0.7-0.7-1.8-0.6-2.3,0.3c-1.4,2.3-2.8,6.7,3.8,11
		C2608.7,1295.7,2621.8,1293.3,2621.8,1293.3z"/>
</g>
<g>
	<path class="st2" d="M712.6,1377.1v10.5c0,3.7-1.2,6.7-2.6,6.7H331.3c-1.4,0-2.6-3-2.6-6.7v-10.5c0-3.7,1.2-6.7,2.6-6.7H710
		C711.4,1370.4,712.6,1373.4,712.6,1377.1z"/>
	<path class="st8" d="M712.6,1377.1v10.5c0,3.7-1.1,6.7-2.4,6.7H409.6c-1.3,0-2.4-3-2.4-6.7v-10.5c0-3.7,1.1-6.7,2.4-6.7h300.6
		C711.5,1370.4,712.6,1373.4,712.6,1377.1z"/>
	<rect x="347.9" y="1394.2" class="st8" width="268.8" height="395.2"/>
	<rect x="423.3" y="1394.2" class="st0" width="268.8" height="395.2"/>
	<g>
		<g>
			<path class="st8" d="M677.7,1767.6H437.7v-362.2h239.9V1767.6z M440.3,1765h234.8v-357H440.3V1765z"/>
		</g>
		<g>
			<rect x="439" y="1525.2" class="st8" width="237.3" height="2.6"/>
		</g>
		<g>
			<rect x="439" y="1647.4" class="st8" width="237.3" height="2.6"/>
		</g>
		<path class="st8" d="M582,1428.7h-44c-2.1,0-3.9-1.8-3.9-3.9l0,0c0-2.2,1.7-3.9,3.9-3.9h44c2.1,0,3.9,1.8,3.9,3.9l0,0
			C585.9,1427,584.1,1428.7,582,1428.7z"/>
		<path class="st8" d="M582,1548.2h-44c-2.1,0-3.9-1.8-3.9-3.9l0,0c0-2.2,1.7-3.9,3.9-3.9h44c2.1,0,3.9,1.8,3.9,3.9l0,0
			C585.9,1546.4,584.1,1548.2,582,1548.2z"/>
		<path class="st8" d="M582,1672.7h-44c-2.1,0-3.9-1.8-3.9-3.9l0,0c0-2.2,1.7-3.9,3.9-3.9h44c2.1,0,3.9,1.8,3.9,3.9l0,0
			C585.9,1671,584.1,1672.7,582,1672.7z"/>
	</g>
</g>
<path class="st19" d="M3154.3,1797.6H109.6c-2,0-3.6-1.6-3.6-3.6v-1c0-2,1.6-3.6,3.6-3.6h3044.6c2,0,3.6,1.6,3.6,3.6v1
	C3157.9,1796,3156.3,1797.6,3154.3,1797.6z"/>
<g>
	<path class="st0" d="M565.9,1302.4v68h-68v-68.2c0-0.7,0-1.3,0.1-2c0.7-7.8,5.7-14.4,12.5-17.3c4.9-2.1,8.3-6.6,8.6-11.9l0.5-9.8
		h24.9l0.2,9.8c0.1,5.3,3.4,9.9,8.3,12c6.9,2.9,11.9,9.5,12.7,17.3C565.9,1301,565.9,1301.7,565.9,1302.4z"/>
	<polygon class="st8" points="546.5,1265.5 517.4,1265.5 518.1,1257.9 545.7,1257.9 	"/>
	<path class="st0" d="M565.9,1302.4v43.8h-68v-44.1c0-0.7,0-1.3,0.1-2h67.7C565.9,1301,565.9,1301.7,565.9,1302.4z"/>
</g>
<g>
	<path class="st0" d="M621.8,1332.4v38h-38v-38.1c0-0.4,0-0.7,0.1-1.1c0.4-4.4,3.2-8,7-9.7c2.7-1.2,4.7-3.7,4.8-6.7l0.3-5.5h14
		l0.1,5.5c0.1,3,1.9,5.5,4.7,6.7c3.9,1.6,6.6,5.3,7.1,9.7C621.7,1331.6,621.8,1332,621.8,1332.4z"/>
	<polygon class="st8" points="610.9,1311.7 594.6,1311.7 595,1307.5 610.4,1307.5 	"/>
	<path class="st0" d="M621.8,1332.4v24.5h-38v-24.6c0-0.4,0-0.7,0.1-1.1h37.9C621.7,1331.6,621.8,1332,621.8,1332.4z"/>
</g>
<rect x="623.5" y="1118.3" class="st20" width="3.3" height="3.1"/>
</svg>
